<svg version="1.1" id="Layer_1" xmlns="http://www.w3.org/2000/svg" xmlns:xlink="http://www.w3.org/1999/xlink" x="0px" y="0px"
	 width="100%" viewBox="0 0 751 751" enable-background="new 0 0 751 751" xml:space="preserve">
<path fill="#FFFFFF" opacity="1.000000" stroke="none" 
	d="
M433.000000,752.000000 
	C288.666656,752.000000 144.833328,752.000000 1.000000,752.000000 
	C1.000000,501.666656 1.000000,251.333328 1.000000,1.000000 
	C251.333328,1.000000 501.666656,1.000000 752.000000,1.000000 
	C752.000000,251.333328 752.000000,501.666656 752.000000,752.000000 
	C645.833313,752.000000 539.666687,752.000000 433.000000,752.000000 
M490.230865,717.743103 
	C490.537659,717.615295 490.837891,717.467957 491.152161,717.362366 
	C664.419128,659.172363 765.496460,482.185089 727.842468,302.911407 
	C687.681091,111.700035 496.397125,-12.915137 305.448944,27.736124 
	C109.990585,69.347565 -13.782505,259.411194 28.225996,453.434509 
	C73.158302,660.961914 287.355377,783.804932 490.230865,717.743103 
z"/>
<path fill="#0174E4" opacity="1.000000" stroke="none" 
	d="
M489.847656,717.849976 
	C287.355377,783.804932 73.158302,660.961914 28.225996,453.434509 
	C-13.782505,259.411194 109.990585,69.347565 305.448944,27.736124 
	C496.397125,-12.915137 687.681091,111.700035 727.842468,302.911407 
	C765.496460,482.185089 664.419128,659.172363 491.152161,717.362366 
	C490.837891,717.467957 490.537659,717.615295 489.847656,717.849976 
M520.444092,507.496246 
	C520.186584,508.225159 519.929138,508.954102 519.294495,510.750916 
	C518.681030,508.132782 518.276123,506.562378 517.947144,504.976196 
	C514.599976,488.838776 511.313751,472.688293 507.847443,456.576569 
	C507.521210,455.060028 506.137878,452.625916 505.152405,452.579224 
	C497.922607,452.236694 490.669067,452.394348 482.783447,452.394348 
	C483.294006,454.867767 483.532379,456.463287 483.958862,458.006836 
	C485.287445,462.815155 486.718384,467.595123 488.054108,472.401520 
	C494.293579,494.853424 500.556671,517.299011 506.693146,539.779114 
	C507.545715,542.902344 509.092010,544.132812 512.333130,543.966614 
	C516.821228,543.736389 521.333984,543.777344 525.827698,543.939514 
	C528.949646,544.052185 530.644043,543.161743 531.393311,539.788330 
	C533.304138,531.185120 535.670593,522.684021 537.788635,514.125671 
	C539.984436,505.252869 542.102478,496.360840 544.580078,486.133575 
	C545.550293,488.706665 546.133179,489.882385 546.441345,491.126129 
	C550.323608,506.794128 554.268860,522.447937 557.951477,538.163086 
	C558.954285,542.442383 560.819458,544.497437 565.441650,543.971863 
	C568.732178,543.597717 572.132751,543.603149 575.424683,543.971008 
	C580.031433,544.485840 582.205383,542.862854 583.483765,538.243835 
	C590.675415,512.259033 598.197388,486.365662 605.577393,460.432770 
	C606.274231,457.984222 606.767273,455.477692 607.510437,452.341705 
	C599.724548,452.341705 592.758179,452.183960 585.812256,452.489258 
	C584.583984,452.543274 582.676208,454.352997 582.378235,455.649780 
	C579.844543,466.675751 577.558960,477.760162 575.306396,488.848816 
	C573.947144,495.540314 572.778748,502.270630 571.524597,508.983521 
	C570.315735,508.296112 569.926270,507.616516 569.759277,506.886078 
	C566.310181,491.799805 563.218018,476.622009 559.346741,461.645477 
	C556.528320,450.742096 559.427124,452.517242 547.995483,452.356476 
	C545.329468,452.318970 542.612122,452.678009 540.007263,452.277161 
	C535.457520,451.577026 533.834412,453.887360 532.869934,457.807739 
	C528.856140,474.122620 524.689941,490.399963 520.444092,507.496246 
M181.505371,414.962769 
	C177.675446,414.963104 173.813431,414.678619 170.031418,415.104462 
	C168.526474,415.273895 166.446442,416.730804 165.930298,418.094452 
	C164.347977,422.274994 163.697235,426.808228 162.113525,430.988098 
	C160.588928,435.011963 161.827408,435.959259 165.729553,435.916779 
	C177.884216,435.784546 190.041443,435.858276 202.197433,435.908417 
	C204.107483,435.916290 206.016312,436.216888 208.872986,436.464111 
	C207.308334,439.697510 206.269348,442.256866 204.894882,444.621216 
	C190.938156,468.629608 177.227295,492.789856 162.753632,516.483643 
	C158.212540,523.917480 156.813843,531.318604 157.221939,539.607788 
	C157.363846,542.490356 158.120270,543.856140 161.229431,543.847229 
	C184.542496,543.780579 207.855942,543.837097 231.168930,543.754639 
	C232.514130,543.749878 234.738800,543.197083 235.057877,542.341370 
	C237.286377,536.365112 239.120270,530.241760 241.387726,523.213257 
	C223.655807,523.213257 206.997253,523.213257 189.462997,523.213257 
	C190.810730,520.715515 191.622528,519.131409 192.504898,517.587646 
	C206.616791,492.899078 220.501663,468.075714 235.000412,443.616302 
	C239.349045,436.280182 241.356125,429.045044 241.078506,420.592804 
	C240.918274,415.714233 239.288849,414.832153 234.957092,414.880707 
	C217.474319,415.076538 199.988068,414.962402 181.505371,414.962769 
M295.773041,317.079803 
	C344.481750,302.461365 393.901581,291.461823 444.735321,287.481384 
	C446.453094,287.346863 448.814178,285.298309 449.483093,283.595093 
	C453.005310,274.626648 456.114410,265.494385 459.274048,256.386719 
	C459.774414,254.944458 459.801971,253.338135 460.136688,251.257050 
	C456.744537,251.420685 454.094360,251.339859 451.507660,251.706665 
	C432.581177,254.390564 413.585114,256.696625 394.767639,260.011169 
	C360.277191,266.086426 326.962769,276.358215 294.285156,288.947754 
	C285.422668,292.362183 279.806915,297.165253 277.804352,306.632599 
	C276.563873,312.497223 273.951752,318.071716 271.542877,324.955017 
	C280.252502,322.101898 287.623901,319.687164 295.773041,317.079803 
M485.245270,205.630600 
	C496.360107,204.518036 507.474945,203.405487 519.934143,202.158371 
	C517.968750,200.310196 517.143616,199.371643 516.164856,198.638031 
	C497.802460,184.874619 479.340912,171.241394 461.107666,157.309280 
	C457.068359,154.222839 454.709991,154.595276 451.153137,158.160843 
	C423.053436,186.329224 394.727905,214.272278 366.484161,242.297043 
	C365.380615,243.392044 364.401581,244.612549 363.364532,245.774582 
	C366.906952,245.664551 369.876221,244.754166 372.858856,243.889801 
	C400.559235,235.862076 428.707611,229.616608 457.426788,227.376068 
	C467.844940,226.563278 472.130920,222.371124 474.101135,213.357040 
	C475.287750,207.928207 478.511871,205.007736 485.245270,205.630600 
M459.730621,457.747803 
	C435.829987,442.427887 406.904266,452.061676 397.896362,478.566101 
	C393.662506,491.023621 393.723846,503.724365 397.205292,516.441772 
	C401.700043,532.860657 413.960938,543.430054 431.351440,545.669983 
	C447.785217,547.786621 463.280640,540.681030 470.818420,526.068237 
	C474.229279,519.455994 476.300537,511.706421 477.082397,504.273254 
	C478.958160,486.439789 475.556946,470.022339 459.730621,457.747803 
M295.413849,205.993576 
	C292.441528,207.433838 288.885895,208.259094 286.602142,210.425278 
	C278.515930,218.095154 270.854950,226.214096 263.069855,234.198975 
	C262.559448,234.722473 262.360291,235.549469 261.620728,237.024170 
	C276.585693,234.425201 290.771606,231.961548 306.165314,229.288132 
	C299.068390,248.599884 292.517578,266.425629 285.966766,284.251404 
	C286.245911,284.392700 286.525085,284.533966 286.804230,284.675232 
	C325.173401,248.565903 363.542542,212.456543 401.911682,176.347198 
	C365.735718,183.777420 330.507843,193.251724 295.413849,205.993576 
M376.710358,433.500305 
	C376.710358,426.587463 376.710358,419.674591 376.710358,411.888397 
	C369.361298,413.497589 363.111725,415.062469 356.783142,416.179871 
	C352.839844,416.876068 351.640625,418.851196 351.739044,422.682343 
	C352.042358,434.490021 352.146088,446.304565 352.182526,458.116913 
	C352.264679,484.746033 352.371857,511.376251 352.185699,538.004028 
	C352.152649,542.728455 353.645508,544.222290 358.194336,543.848145 
	C362.327240,543.508179 366.534821,543.490723 370.664398,543.849609 
	C375.348877,544.256836 376.954865,542.844055 376.918884,537.854309 
	C376.670624,503.404236 376.742676,468.951843 376.710358,433.500305 
M316.936157,414.581543 
	C314.177765,415.219147 311.440643,415.980042 308.655029,416.459564 
	C305.885040,416.936371 304.772705,418.283020 304.779266,421.179138 
	C304.868561,460.664581 304.901062,500.150269 304.835419,539.635681 
	C304.829712,543.071289 306.248199,543.902161 309.335876,543.790466 
	C314.161133,543.615784 319.020966,543.446289 323.822266,543.827393 
	C328.631042,544.208984 329.657898,542.255066 329.634094,537.775269 
	C329.432159,499.790070 329.456696,461.803680 329.414734,423.817627 
	C329.401703,412.037170 329.403748,412.037170 316.936157,414.581543 
M430.602234,151.688782 
	C436.553131,151.110992 442.504059,150.533203 448.454956,149.955414 
	C448.535339,149.462936 448.615692,148.970459 448.696075,148.477982 
	C435.533081,139.823074 422.205658,131.404160 409.284607,122.401985 
	C403.791809,118.575111 399.490082,118.614189 394.150726,122.531410 
	C372.026855,138.762711 349.693512,154.708435 327.464508,170.796906 
	C326.657990,171.380630 326.138519,172.360977 324.614410,174.217056 
	C359.931091,163.698242 394.558075,156.510803 430.602234,151.688782 
M281.645264,540.899963 
	C281.628723,515.114929 281.544556,489.329559 281.668915,463.545227 
	C281.687439,459.698517 280.573639,458.333160 276.779114,459.251617 
	C271.446503,460.542236 266.004822,461.453796 260.782074,463.080658 
	C259.315704,463.537415 257.474792,465.925232 257.460754,467.442596 
	C257.237488,491.562103 257.320618,515.684204 257.223480,539.805359 
	C257.210815,542.955933 258.248962,544.433167 261.506775,544.373962 
	C266.828308,544.277222 272.162903,544.532410 277.469727,544.237976 
	C278.888428,544.159241 280.226349,542.624329 281.645264,540.899963 
M283.837158,442.313629 
	C283.990051,440.992157 284.274506,439.670593 284.273499,438.349243 
	C284.268585,431.938690 280.248199,426.248779 274.353271,424.182190 
	C268.805084,422.237152 261.527191,424.554993 257.800659,429.453735 
	C254.183319,434.208862 253.937408,441.822510 257.353577,446.812927 
	C260.417908,451.289398 264.906677,453.563934 270.162506,453.239960 
	C276.668091,452.839020 281.336792,449.326202 283.837158,442.313629 
z"/>
<path fill="#F4F8FD" opacity="1.000000" stroke="none" 
	d="
M520.511841,507.093689 
	C524.689941,490.399963 528.856140,474.122620 532.869934,457.807739 
	C533.834412,453.887360 535.457520,451.577026 540.007263,452.277161 
	C542.612122,452.678009 545.329468,452.318970 547.995483,452.356476 
	C559.427124,452.517242 556.528320,450.742096 559.346741,461.645477 
	C563.218018,476.622009 566.310181,491.799805 569.759277,506.886078 
	C569.926270,507.616516 570.315735,508.296112 571.524597,508.983521 
	C572.778748,502.270630 573.947144,495.540314 575.306396,488.848816 
	C577.558960,477.760162 579.844543,466.675751 582.378235,455.649780 
	C582.676208,454.352997 584.583984,452.543274 585.812256,452.489258 
	C592.758179,452.183960 599.724548,452.341705 607.510437,452.341705 
	C606.767273,455.477692 606.274231,457.984222 605.577393,460.432770 
	C598.197388,486.365662 590.675415,512.259033 583.483765,538.243835 
	C582.205383,542.862854 580.031433,544.485840 575.424683,543.971008 
	C572.132751,543.603149 568.732178,543.597717 565.441650,543.971863 
	C560.819458,544.497437 558.954285,542.442383 557.951477,538.163086 
	C554.268860,522.447937 550.323608,506.794128 546.441345,491.126129 
	C546.133179,489.882385 545.550293,488.706665 544.580078,486.133575 
	C542.102478,496.360840 539.984436,505.252869 537.788635,514.125671 
	C535.670593,522.684021 533.304138,531.185120 531.393311,539.788330 
	C530.644043,543.161743 528.949646,544.052185 525.827698,543.939514 
	C521.333984,543.777344 516.821228,543.736389 512.333130,543.966614 
	C509.092010,544.132812 507.545715,542.902344 506.693146,539.779114 
	C500.556671,517.299011 494.293579,494.853424 488.054108,472.401520 
	C486.718384,467.595123 485.287445,462.815155 483.958862,458.006836 
	C483.532379,456.463287 483.294006,454.867767 482.783447,452.394348 
	C490.669067,452.394348 497.922607,452.236694 505.152405,452.579224 
	C506.137878,452.625916 507.521210,455.060028 507.847443,456.576569 
	C511.313751,472.688293 514.599976,488.838776 517.947144,504.976196 
	C518.276123,506.562378 518.681030,508.132782 519.294495,510.750916 
	C519.929138,508.954102 520.186584,508.225159 520.511841,507.093689 
z"/>
<path fill="#F4F9FD" opacity="1.000000" stroke="none" 
	d="
M182.004242,414.962769 
	C199.988068,414.962402 217.474319,415.076538 234.957092,414.880707 
	C239.288849,414.832153 240.918274,415.714233 241.078506,420.592804 
	C241.356125,429.045044 239.349045,436.280182 235.000412,443.616302 
	C220.501663,468.075714 206.616791,492.899078 192.504898,517.587646 
	C191.622528,519.131409 190.810730,520.715515 189.462997,523.213257 
	C206.997253,523.213257 223.655807,523.213257 241.387726,523.213257 
	C239.120270,530.241760 237.286377,536.365112 235.057877,542.341370 
	C234.738800,543.197083 232.514130,543.749878 231.168930,543.754639 
	C207.855942,543.837097 184.542496,543.780579 161.229431,543.847229 
	C158.120270,543.856140 157.363846,542.490356 157.221939,539.607788 
	C156.813843,531.318604 158.212540,523.917480 162.753632,516.483643 
	C177.227295,492.789856 190.938156,468.629608 204.894882,444.621216 
	C206.269348,442.256866 207.308334,439.697510 208.872986,436.464111 
	C206.016312,436.216888 204.107483,435.916290 202.197433,435.908417 
	C190.041443,435.858276 177.884216,435.784546 165.729553,435.916779 
	C161.827408,435.959259 160.588928,435.011963 162.113525,430.988098 
	C163.697235,426.808228 164.347977,422.274994 165.930298,418.094452 
	C166.446442,416.730804 168.526474,415.273895 170.031418,415.104462 
	C173.813431,414.678619 177.675446,414.963104 182.004242,414.962769 
z"/>
<path fill="#F7FAFE" opacity="1.000000" stroke="none" 
	d="
M295.384155,317.176117 
	C287.623901,319.687164 280.252502,322.101898 271.542877,324.955017 
	C273.951752,318.071716 276.563873,312.497223 277.804352,306.632599 
	C279.806915,297.165253 285.422668,292.362183 294.285156,288.947754 
	C326.962769,276.358215 360.277191,266.086426 394.767639,260.011169 
	C413.585114,256.696625 432.581177,254.390564 451.507660,251.706665 
	C454.094360,251.339859 456.744537,251.420685 460.136688,251.257050 
	C459.801971,253.338135 459.774414,254.944458 459.274048,256.386719 
	C456.114410,265.494385 453.005310,274.626648 449.483093,283.595093 
	C448.814178,285.298309 446.453094,287.346863 444.735321,287.481384 
	C393.901581,291.461823 344.481750,302.461365 295.384155,317.176117 
z"/>
<path fill="#F8FBFE" opacity="1.000000" stroke="none" 
	d="
M484.797791,205.661362 
	C478.511871,205.007736 475.287750,207.928207 474.101135,213.357040 
	C472.130920,222.371124 467.844940,226.563278 457.426788,227.376068 
	C428.707611,229.616608 400.559235,235.862076 372.858856,243.889801 
	C369.876221,244.754166 366.906952,245.664551 363.364532,245.774582 
	C364.401581,244.612549 365.380615,243.392044 366.484161,242.297043 
	C394.727905,214.272278 423.053436,186.329224 451.153137,158.160843 
	C454.709991,154.595276 457.068359,154.222839 461.107666,157.309280 
	C479.340912,171.241394 497.802460,184.874619 516.164856,198.638031 
	C517.143616,199.371643 517.968750,200.310196 519.934143,202.158371 
	C507.474945,203.405487 496.360107,204.518036 484.797791,205.661362 
z"/>
<path fill="#F6FAFE" opacity="1.000000" stroke="none" 
	d="
M460.005035,457.976501 
	C475.556946,470.022339 478.958160,486.439789 477.082397,504.273254 
	C476.300537,511.706421 474.229279,519.455994 470.818420,526.068237 
	C463.280640,540.681030 447.785217,547.786621 431.351440,545.669983 
	C413.960938,543.430054 401.700043,532.860657 397.205292,516.441772 
	C393.723846,503.724365 393.662506,491.023621 397.896362,478.566101 
	C406.904266,452.061676 435.829987,442.427887 460.005035,457.976501 
M449.787354,480.971863 
	C447.390442,472.467285 443.129700,468.426544 436.463104,468.335602 
	C430.186798,468.250000 425.126678,472.262085 423.299103,479.846832 
	C420.251678,492.494232 420.313843,505.288849 423.495026,517.911743 
	C425.249847,524.874695 430.510223,528.727966 436.787964,528.571716 
	C442.788452,528.422302 447.430847,524.395630 449.167206,517.442200 
	C452.115967,505.633514 451.854248,493.717743 449.787354,480.971863 
z"/>
<path fill="#F5F9FE" opacity="1.000000" stroke="none" 
	d="
M295.768463,205.843903 
	C330.507843,193.251724 365.735718,183.777420 401.911682,176.347198 
	C363.542542,212.456543 325.173401,248.565903 286.804230,284.675232 
	C286.525085,284.533966 286.245911,284.392700 285.966766,284.251404 
	C292.517578,266.425629 299.068390,248.599884 306.165314,229.288132 
	C290.771606,231.961548 276.585693,234.425201 261.620728,237.024170 
	C262.360291,235.549469 262.559448,234.722473 263.069855,234.198975 
	C270.854950,226.214096 278.515930,218.095154 286.602142,210.425278 
	C288.885895,208.259094 292.441528,207.433838 295.768463,205.843903 
z"/>
<path fill="#F1F7FD" opacity="1.000000" stroke="none" 
	d="
M376.711060,434.000244 
	C376.742676,468.951843 376.670624,503.404236 376.918884,537.854309 
	C376.954865,542.844055 375.348877,544.256836 370.664398,543.849609 
	C366.534821,543.490723 362.327240,543.508179 358.194336,543.848145 
	C353.645508,544.222290 352.152649,542.728455 352.185699,538.004028 
	C352.371857,511.376251 352.264679,484.746033 352.182526,458.116913 
	C352.146088,446.304565 352.042358,434.490021 351.739044,422.682343 
	C351.640625,418.851196 352.839844,416.876068 356.783142,416.179871 
	C363.111725,415.062469 369.361298,413.497589 376.710358,411.888397 
	C376.710358,419.674591 376.710358,426.587463 376.711060,434.000244 
z"/>
<path fill="#F7FAFE" opacity="1.000000" stroke="none" 
	d="
M317.346222,414.507538 
	C329.403748,412.037170 329.401703,412.037170 329.414734,423.817627 
	C329.456696,461.803680 329.432159,499.790070 329.634094,537.775269 
	C329.657898,542.255066 328.631042,544.208984 323.822266,543.827393 
	C319.020966,543.446289 314.161133,543.615784 309.335876,543.790466 
	C306.248199,543.902161 304.829712,543.071289 304.835419,539.635681 
	C304.901062,500.150269 304.868561,460.664581 304.779266,421.179138 
	C304.772705,418.283020 305.885040,416.936371 308.655029,416.459564 
	C311.440643,415.980042 314.177765,415.219147 317.346222,414.507538 
z"/>
<path fill="#F4F8FD" opacity="1.000000" stroke="none" 
	d="
M430.146545,151.716888 
	C394.558075,156.510803 359.931091,163.698242 324.614410,174.217056 
	C326.138519,172.360977 326.657990,171.380630 327.464508,170.796906 
	C349.693512,154.708435 372.026855,138.762711 394.150726,122.531410 
	C399.490082,118.614189 403.791809,118.575111 409.284607,122.401985 
	C422.205658,131.404160 435.533081,139.823074 448.696075,148.477982 
	C448.615692,148.970459 448.535339,149.462936 448.454956,149.955414 
	C442.504059,150.533203 436.553131,151.110992 430.146545,151.716888 
z"/>
<path fill="#F1F7FD" opacity="1.000000" stroke="none" 
	d="
M281.623291,541.328979 
	C280.226349,542.624329 278.888428,544.159241 277.469727,544.237976 
	C272.162903,544.532410 266.828308,544.277222 261.506775,544.373962 
	C258.248962,544.433167 257.210815,542.955933 257.223480,539.805359 
	C257.320618,515.684204 257.237488,491.562103 257.460754,467.442596 
	C257.474792,465.925232 259.315704,463.537415 260.782074,463.080658 
	C266.004822,461.453796 271.446503,460.542236 276.779114,459.251617 
	C280.573639,458.333160 281.687439,459.698517 281.668915,463.545227 
	C281.544556,489.329559 281.628723,515.114929 281.623291,541.328979 
z"/>
<path fill="#F3F8FD" opacity="1.000000" stroke="none" 
	d="
M283.760376,442.687958 
	C281.336792,449.326202 276.668091,452.839020 270.162506,453.239960 
	C264.906677,453.563934 260.417908,451.289398 257.353577,446.812927 
	C253.937408,441.822510 254.183319,434.208862 257.800659,429.453735 
	C261.527191,424.554993 268.805084,422.237152 274.353271,424.182190 
	C280.248199,426.248779 284.268585,431.938690 284.273499,438.349243 
	C284.274506,439.670593 283.990051,440.992157 283.760376,442.687958 
z"/>
<path fill="#0A78E4" opacity="1.000000" stroke="none" 
	d="
M449.875366,481.377258 
	C451.854248,493.717743 452.115967,505.633514 449.167206,517.442200 
	C447.430847,524.395630 442.788452,528.422302 436.787964,528.571716 
	C430.510223,528.727966 425.249847,524.874695 423.495026,517.911743 
	C420.313843,505.288849 420.251678,492.494232 423.299103,479.846832 
	C425.126678,472.262085 430.186798,468.250000 436.463104,468.335602 
	C443.129700,468.426544 447.390442,472.467285 449.875366,481.377258 
z"/>
</svg>